<?xml version="1.0" standalone="no"?><!DOCTYPE svg PUBLIC "-//W3C//DTD SVG 1.1//EN" "http://www.w3.org/Graphics/SVG/1.1/DTD/svg11.dtd"><svg t="1666417910825" class="icon" viewBox="0 0 1024 1024" version="1.1" xmlns="http://www.w3.org/2000/svg" p-id="2909" xmlns:xlink="http://www.w3.org/1999/xlink" width="200" height="200"><path d="M778.581333 374.101333C766.976 237.226667 651.946667 129.706667 512 129.706667s-254.976 107.52-266.581333 244.394666c-93.184 27.989333-160.768 114.005333-160.768 216.064 0 124.586667 101.034667 225.621333 225.621333 225.621334h404.138667c124.586667 0 225.621333-101.034667 225.621333-225.621334-0.341333-102.058667-68.266667-188.074667-161.450667-216.064z m-128.341333 209.237334c-22.869333 21.845333-62.122667 49.834667-117.418667 58.709333-11.264 1.706667-22.186667 2.730667-32.768 2.730667-72.704 0-126.293333-37.888-142.336-50.858667-18.090667-14.677333-21.162667-41.301333-6.485333-59.392 14.677333-18.090667 41.301333-21.162667 59.392-6.485333 11.605333 9.557333 53.930667 39.253333 108.885333 30.72 35.498667-5.802667 60.416-25.258667 72.021334-36.181334 17.066667-16.042667 43.690667-15.36 59.733333 1.365334 16.725333 16.384 16.042667 43.349333-1.024 59.392z" fill="#635DF7" opacity=".7" p-id="2910"></path></svg>