<?xml version="1.0" standalone="no"?><!DOCTYPE svg PUBLIC "-//W3C//DTD SVG 1.1//EN" "http://www.w3.org/Graphics/SVG/1.1/DTD/svg11.dtd"><svg class="icon" width="200px" height="200.00px" viewBox="0 0 1024 1024" version="1.1" xmlns="http://www.w3.org/2000/svg"><path d="M809.984 414.1568c-2.4064-162.56-134.8096-293.5808-297.9328-293.5808s-295.5264 131.072-297.9328 293.5808C115.2512 445.2864 43.5712 537.6 43.5712 646.7584c0 134.656 109.1584 243.8144 243.8144 243.8144h449.3824c134.656 0 243.8144-109.1584 243.8144-243.8144-0.0512-109.1072-71.7312-201.472-170.5984-232.6016z" fill="#025FFC" /><path d="M768.6144 425.7792c-2.048-139.4176-116.1216-251.7504-256.5632-251.7504S257.536 286.4128 255.488 425.7792c-85.1456 26.6752-146.8928 105.8816-146.8928 199.4752 0 115.456 94.0032 209.1008 209.9712 209.1008h386.9696c115.968 0 209.9712-93.5936 209.9712-209.1008 0-93.5936-61.7472-172.8-146.8928-199.4752z" fill="#0C7AF2" /><path d="M742.4 428.7488c-1.8432-122.3168-104.2432-220.9792-230.3488-220.9792S283.5456 306.3808 281.7024 428.7488c-76.4416 23.3984-131.8912 92.928-131.8912 175.0528 0 101.3248 84.3776 183.5008 188.5184 183.5008h347.4432c104.0896 0 188.5184-82.176 188.5184-183.5008 0-82.1248-55.4496-151.6544-131.8912-175.0528z" fill="#3489FA" /><path d="M708.7104 435.0464c-1.5872-102.4512-88.9856-185.0368-196.6592-185.0368S316.9792 332.5952 315.392 435.0464c-65.2288 19.6096-112.5888 77.824-112.5888 146.5856 0 84.8896 72.0384 153.6512 160.9216 153.6512h296.6528c88.8832 0 160.9216-68.8128 160.9216-153.6512 0-68.7616-47.3088-126.976-112.5888-146.5856z" fill="#3F91FC" /><path d="M753.5616 575.6928c-4.4544-24.32-18.1248-45.3632-38.5024-59.3408-41.6768-28.5696-98.6112-18.2784-127.3344 22.8352-2.2528 2.8672-26.0096 31.7952-75.6736 31.7952-61.7984 0-88.2176-30.8736-89.856-32.8704-29.5936-40.3968-86.6816-49.7152-127.6416-20.736a91.65824 91.65824 0 0 0-37.5808 59.6992c-4.1472 24.2688 1.4336 48.6912 15.5648 68.7104 3.1744 4.4544 79.1552 109.568 239.4624 109.568 149.2992 0 223.744-106.1376 226.8672-110.6432 13.9264-20.3776 19.0976-44.8512 14.6944-69.0176z" fill="#025FFC" /><path d="M718.2848 582.144c-2.7136-14.848-11.0592-27.7504-23.5008-36.2496-25.6-17.5616-60.672-11.0592-77.9776 14.1824-1.3824 1.8944-34.3552 46.6944-104.7552 46.6944-82.1248 0-117.2992-45.568-118.528-47.2064-18.0224-24.9856-53.0944-30.8224-78.2336-13.0048-12.288 8.704-20.4288 21.6576-22.9376 36.5056s0.8704 29.7472 9.5232 41.984c2.7136 3.84 68.3008 94.3616 210.176 94.3616 130.6624 0 194.6112-91.1872 197.2736-95.0784a56.1664 56.1664 0 0 0 8.96-42.1888z" fill="#F7BC00" /><path d="M512.0512 696.3712c-129.9456 0-188.928-81.152-191.3856-84.6336a33.24416 33.24416 0 0 1 7.936-46.3872 33.26464 33.26464 0 0 1 46.2336 7.68c2.0992 2.816 43.52 56.7808 137.216 56.7808 82.5344 0 121.9072-54.0672 123.5456-56.3712 10.3936-15.1552 31.0272-18.8928 46.1824-8.5504 15.1552 10.3936 18.944 31.232 8.5504 46.3872-2.3552 3.5328-59.648 85.0944-178.2784 85.0944z" fill="#FFD029" /><path d="M512.0512 675.8912c-119.4496 0-172.4928-72.9088-174.6944-75.9808-4.096-5.7856-2.7136-13.7728 3.0208-17.8688 5.7344-4.0448 13.7216-2.7136 17.8176 3.0208 1.9968 2.7648 48.2304 65.2288 153.8048 65.2288 94.6176 0 139.8272-64.3584 140.2368-65.024a12.8256 12.8256 0 0 1 17.8176-3.328c5.8368 3.9936 7.3216 11.9808 3.328 17.8176-2.0992 3.072-53.3504 76.1344-161.3312 76.1344z" fill="#FFE576" /></svg>