<?xml version="1.0" standalone="no"?><!DOCTYPE svg PUBLIC "-//W3C//DTD SVG 1.1//EN" "http://www.w3.org/Graphics/SVG/1.1/DTD/svg11.dtd"><svg t="1666418483582" class="icon" viewBox="0 0 1024 1024" version="1.1" xmlns="http://www.w3.org/2000/svg" p-id="14371" width="500" height="500" xmlns:xlink="http://www.w3.org/1999/xlink"><path d="M60.927102 281.685755A57.98692 57.98692 0 0 1 87.062051 236.847982L485.620035 6.207051a58.313607 58.313607 0 0 1 52.2699 0L936.937949 236.847982a57.98692 57.98692 0 0 1 26.134949 45.246132v460.138459a57.98692 57.98692 0 0 1-26.134949 45.246132l-398.802999 230.314244a58.313607 58.313607 0 0 1-52.2699 0L87.062051 787.478705A57.98692 57.98692 0 0 1 60.927102 742.232573z" fill="#B199D9" p-id="14372"></path><path d="M512 508.406444a11.352369 11.352369 0 1 0 11.352369 11.352369 11.434041 11.434041 0 0 0-11.352369-11.352369zM648.146754 648.146754a192.418568 192.418568 0 1 0-136.146754 56.435157 191.846866 191.846866 0 0 0 136.146754-56.435157zM327.176902 512a184.823098 184.823098 0 1 1 184.823098 184.741426A184.823098 184.823098 0 0 1 327.176902 512z m373.076408-94.249163a210.304674 210.304674 0 0 1-322.358271 256.367523l276.540437 276.458766 282.502473-163.343436a57.98692 57.98692 0 0 0 26.134949-45.246132v-61.417132z m-70.156006-23.848141a167.182007 167.182007 0 1 0 49.003031 118.097304 166.936992 166.936992 0 0 0-49.003031-118.097304zM587.709683 609.43436l-1.38842 5.226989h-5.472005A9.392248 9.392248 0 0 1 575.458925 612.537885a16.906046 16.906046 0 0 1-3.675227-3.593556l-47.369597-62.723879a29.320147 29.320147 0 0 1-35.445525-8.983889l-30.38188 10.45398a9.228904 9.228904 0 0 1-2.940181 0.49003 8.820546 8.820546 0 0 1-8.167172-6.043707 9.555591 9.555591 0 0 1-0.490031-2.85851 8.902217 8.902217 0 0 1 5.962036-8.167172l30.381879-10.372308v-0.571702a29.238475 29.238475 0 0 1 25.154889-29.320147l9.800606-72.687829a8.738874 8.738874 0 0 1 8.657202-7.513798h1.796778a8.902217 8.902217 0 0 1 5.635349 3.430212 8.167172 8.167172 0 0 1 1.633434 5.063647 6.697081 6.697081 0 0 1 0 1.143404l-10.290636 73.504546a28.99346 28.99346 0 0 1 14.129207 18.376136l0.898389 7.187112a29.075132 29.075132 0 0 1-4.410273 15.354283l48.104642 63.70394a13.80252 13.80252 0 0 1 3.185197 8.167171 7.105439 7.105439 0 0 1 0.081672 2.858511z" fill="#2C394C" p-id="14373"></path><path d="M512 301.613654A210.386346 210.386346 0 1 0 722.468017 512a210.386346 210.386346 0 0 0-210.468017-210.386346zM648.146754 648.146754a192.663583 192.663583 0 1 1 56.353485-136.146754 191.928537 191.928537 0 0 1-56.353485 136.146754z m-136.146754-320.969852a184.823098 184.823098 0 1 0 184.741426 184.823098 184.823098 184.823098 0 0 0-184.741426-184.823098z m118.097304 302.920402a167.182007 167.182007 0 1 1 49.003031-118.097304 166.528633 166.528633 0 0 1-49.003031 118.097304zM536.746531 535.194768a29.075132 29.075132 0 0 0 4.410272-15.354283l-0.898389-7.187111A28.99346 28.99346 0 0 0 526.455894 494.277237l10.290637-73.504546a6.697081 6.697081 0 0 0 0-1.143404 8.167172 8.167172 0 0 0-1.633435-5.063647 8.902217 8.902217 0 0 0-5.635348-3.430212h-2.205137a8.738874 8.738874 0 0 0-8.983889 7.023768l-9.800606 72.687829a29.238475 29.238475 0 0 0-25.644919 28.911788v0.571702L452.461318 530.866167a8.902217 8.902217 0 0 0-5.962036 8.167172 9.555591 9.555591 0 0 0 0.49003 2.85851 8.820546 8.820546 0 0 0 8.167172 6.043707 9.228904 9.228904 0 0 0 2.940182-0.49003l30.381879-10.45398a29.320147 29.320147 0 0 0 35.445526 8.983889l47.369596 62.723879A16.906046 16.906046 0 0 0 575.458925 612.537885a9.392248 9.392248 0 0 0 5.635348 1.960121h5.472006l1.388419-5.22699a7.105439 7.105439 0 0 0 0-2.286808 13.80252 13.80252 0 0 0-3.185197-8.167172z m-24.501516-4.083586a11.352369 11.352369 0 1 1 11.352369-11.352369A11.352369 11.352369 0 0 1 512 530.866167z" fill="#FFFFFF" p-id="14374"></path></svg>